<svg xmlns="http://www.w3.org/2000/svg" width="100%" height="100%" viewBox="0 0 256 256"><path fill="#86fe5d" d="M0,0 h16 v16 h-16Z M16,0 h16 v16 h-16Z M32,0 h16 v16 h-16Z M64,0 h16 v16 h-16Z M80,0 h16 v16 h-16Z M128,0 h16 v16 h-16Z M144,0 h16 v16 h-16Z M160,0 h16 v16 h-16Z M176,0 h16 v16 h-16Z M192,0 h16 v16 h-16Z M224,0 h16 v16 h-16Z"/><path fill="#b99f24" d="M48,16 h16 v16 h-16Z M96,16 h16 v16 h-16Z M112,16 h16 v16 h-16Z M208,16 h16 v16 h-16Z M240,16 h16 v16 h-16Z"/><path fill="#bd84e6" d="M48,32 h16 v16 h-16Z M96,32 h16 v16 h-16Z M112,32 h16 v16 h-16Z M208,32 h16 v16 h-16Z M240,32 h16 v16 h-16Z"/><path fill="#ea891a" d="M48,48 h16 v16 h-16Z M96,48 h16 v16 h-16Z M112,48 h16 v16 h-16Z M208,48 h16 v16 h-16Z M240,48 h16 v16 h-16Z"/><path fill="#d78f74" d="M0,64 h16 v16 h-16Z M16,64 h16 v16 h-16Z M32,64 h16 v16 h-16Z M64,64 h16 v16 h-16Z M80,64 h16 v16 h-16Z M128,64 h16 v16 h-16Z M144,64 h16 v16 h-16Z M160,64 h16 v16 h-16Z M176,64 h16 v16 h-16Z M192,64 h16 v16 h-16Z M224,64 h16 v16 h-16Z"/><path fill="#fc29bc" d="M48,80 h16 v16 h-16Z M96,80 h16 v16 h-16Z M112,80 h16 v16 h-16Z M208,80 h16 v16 h-16Z M240,80 h16 v16 h-16Z"/><path fill="#655f9e" d="M0,96 h16 v16 h-16Z M16,96 h16 v16 h-16Z M32,96 h16 v16 h-16Z M64,96 h16 v16 h-16Z M80,96 h16 v16 h-16Z M128,96 h16 v16 h-16Z M144,96 h16 v16 h-16Z M160,96 h16 v16 h-16Z M176,96 h16 v16 h-16Z M192,96 h16 v16 h-16Z M224,96 h16 v16 h-16Z"/><path fill="#1adf7c" d="M0,112 h16 v16 h-16Z M16,112 h16 v16 h-16Z M32,112 h16 v16 h-16Z M64,112 h16 v16 h-16Z M80,112 h16 v16 h-16Z M128,112 h16 v16 h-16Z M144,112 h16 v16 h-16Z M160,112 h16 v16 h-16Z M176,112 h16 v16 h-16Z M192,112 h16 v16 h-16Z M224,112 h16 v16 h-16Z"/><path fill="#aacaf4" d="M0,128 h16 v16 h-16Z M16,128 h16 v16 h-16Z M32,128 h16 v16 h-16Z M64,128 h16 v16 h-16Z M80,128 h16 v16 h-16Z M128,128 h16 v16 h-16Z M144,128 h16 v16 h-16Z M160,128 h16 v16 h-16Z M176,128 h16 v16 h-16Z M192,128 h16 v16 h-16Z M224,128 h16 v16 h-16Z"/><path fill="#b9da55" d="M48,144 h16 v16 h-16Z M96,144 h16 v16 h-16Z M112,144 h16 v16 h-16Z M208,144 h16 v16 h-16Z M240,144 h16 v16 h-16Z"/><path fill="#2cd2c8" d="M0,160 h16 v16 h-16Z M16,160 h16 v16 h-16Z M32,160 h16 v16 h-16Z M64,160 h16 v16 h-16Z M80,160 h16 v16 h-16Z M128,160 h16 v16 h-16Z M144,160 h16 v16 h-16Z M160,160 h16 v16 h-16Z M176,160 h16 v16 h-16Z M192,160 h16 v16 h-16Z M224,160 h16 v16 h-16Z"/><path fill="#74a491" d="M48,176 h16 v16 h-16Z M96,176 h16 v16 h-16Z M112,176 h16 v16 h-16Z M208,176 h16 v16 h-16Z M240,176 h16 v16 h-16Z"/><path fill="#708825" d="M48,192 h16 v16 h-16Z M96,192 h16 v16 h-16Z M112,192 h16 v16 h-16Z M208,192 h16 v16 h-16Z M240,192 h16 v16 h-16Z"/><path fill="#c35740" d="M0,208 h16 v16 h-16Z M16,208 h16 v16 h-16Z M32,208 h16 v16 h-16Z M64,208 h16 v16 h-16Z M80,208 h16 v16 h-16Z M128,208 h16 v16 h-16Z M144,208 h16 v16 h-16Z M160,208 h16 v16 h-16Z M176,208 h16 v16 h-16Z M192,208 h16 v16 h-16Z M224,208 h16 v16 h-16Z"/><path fill="#4daf71" d="M0,224 h16 v16 h-16Z M16,224 h16 v16 h-16Z M32,224 h16 v16 h-16Z M64,224 h16 v16 h-16Z M80,224 h16 v16 h-16Z M128,224 h16 v16 h-16Z M144,224 h16 v16 h-16Z M160,224 h16 v16 h-16Z M176,224 h16 v16 h-16Z M192,224 h16 v16 h-16Z M224,224 h16 v16 h-16Z"/><path fill="#423465" d="M0,240 h16 v16 h-16Z M16,240 h16 v16 h-16Z M32,240 h16 v16 h-16Z M64,240 h16 v16 h-16Z M80,240 h16 v16 h-16Z M128,240 h16 v16 h-16Z M144,240 h16 v16 h-16Z M160,240 h16 v16 h-16Z M176,240 h16 v16 h-16Z M192,240 h16 v16 h-16Z M224,240 h16 v16 h-16Z"/></svg>